<svg xmlns="http://www.w3.org/2000/svg"  viewBox="0 0 64 64" width="64px" height="64px"><path d="M 52.220703 3.4921875 C 51.966578 3.5240625 51.723687 3.6525938 51.554688 3.8710938 L 50.328125 5.4511719 C 49.989125 5.8861719 50.066906 6.5145156 50.503906 6.8535156 C 50.685906 6.9955156 50.903188 7.0644531 51.117188 7.0644531 C 51.415188 7.0644531 51.70925 6.9327344 51.90625 6.6777344 L 53.134766 5.0976562 C 53.473766 4.6626562 53.394031 4.0343125 52.957031 3.6953125 C 52.739531 3.5263125 52.474828 3.4603125 52.220703 3.4921875 z M 32 4 C 19.653789 4 9.1703728 12.013428 5.4511719 23.115234 C 5.4499047 23.115029 5.448533 23.11544 5.4472656 23.115234 L 5.4433594 23.134766 C 4.5118978 25.922175 4 28.901181 4 32 C 4 47.452415 16.547585 60 32 60 C 47.452415 60 60 47.452415 60 32 C 60 27.492834 58.92504 23.236496 57.029297 19.462891 C 57.035573 19.458658 57.042564 19.45542 57.048828 19.451172 L 56.951172 19.306641 C 52.318593 10.227411 42.883027 4 32 4 z M 32 6 C 34.214241 6 36.362551 6.2792581 38.414062 6.7988281 C 37.335529 9.2684203 34.878376 11 32 11 C 29.121784 11 26.680689 9.2630316 25.601562 6.7949219 C 27.648376 6.2778957 29.791361 6 32 6 z M 56.15625 6.84375 C 55.9005 6.84375 55.644719 6.9412187 55.449219 7.1367188 L 54.035156 8.5507812 C 53.644156 8.9417812 53.644156 9.5738437 54.035156 9.9648438 C 54.230156 10.159844 54.486187 10.257812 54.742188 10.257812 C 54.998187 10.257812 55.253219 10.159844 55.449219 9.9648438 L 56.863281 8.5507812 C 57.254281 8.1597813 57.254281 7.5277188 56.863281 7.1367188 C 56.667781 6.9412188 56.412 6.84375 56.15625 6.84375 z M 40.339844 7.3710938 C 41.470055 7.7530823 42.564834 8.2092959 43.619141 8.7363281 C 43.223897 9.750518 43 10.849908 43 12 C 43 16.958516 47.041484 21 52 21 C 53.149514 21 54.242215 20.762031 55.255859 20.367188 C 55.848399 21.550737 56.354905 22.78409 56.763672 24.0625 C 53.927727 25.579607 52 28.569967 52 32 C 52 35.42794 53.936402 38.402338 56.769531 39.919922 C 56.361118 41.200398 55.854451 42.435658 55.261719 43.621094 C 54.247468 43.226553 53.149246 43 52 43 C 47.041484 43 43 47.041484 43 52 C 43 53.149008 43.226055 54.247757 43.621094 55.261719 C 42.441114 55.851723 41.211686 56.356255 39.9375 56.763672 C 38.420403 53.928459 35.430356 52 32 52 C 28.570828 52 25.598123 53.936081 24.080078 56.769531 C 22.799602 56.361118 21.564342 55.854451 20.378906 55.261719 C 20.773577 54.248082 21 53.149608 21 52 C 21 47.041484 16.958516 43 12 43 C 10.850815 43 9.7523728 43.226308 8.7382812 43.621094 C 8.2104809 42.565519 7.7534858 41.469563 7.3710938 40.337891 C 10.670258 39.000583 13 35.767511 13 32 C 13 28.232384 10.669514 25.001929 7.3710938 23.664062 C 7.7523765 22.535406 8.2064918 21.441663 8.7324219 20.388672 C 9.7462099 20.783622 10.849823 21 12 21 C 16.958516 21 21 16.958516 21 12 C 21 10.849607 20.784059 9.7467796 20.388672 8.7324219 C 21.439298 8.2076727 22.530284 7.7538109 23.65625 7.3730469 C 24.992661 10.674622 28.230802 13 32 13 C 35.768734 13 39.003295 10.672358 40.339844 7.3710938 z M 18.605469 9.7089844 C 18.854851 10.427163 19 11.193987 19 12 C 19 15.877484 15.877484 19 12 19 C 11.192608 19 10.425357 18.855087 9.7070312 18.605469 C 11.899799 14.960459 14.960547 11.901884 18.605469 9.7089844 z M 45.396484 9.7089844 C 49.040009 11.901366 52.098634 14.959991 54.291016 18.603516 C 53.572672 18.852921 52.806558 19 52 19 C 48.122516 19 45 15.877484 45 12 C 45 11.193124 45.147129 10.4268 45.396484 9.7089844 z M 59.640625 10.664062 C 59.386625 10.632063 59.120344 10.695734 58.902344 10.865234 L 57.322266 12.09375 C 56.886266 12.43275 56.806531 13.059094 57.144531 13.496094 C 57.342531 13.750094 57.637547 13.882812 57.935547 13.882812 C 58.149547 13.882812 58.366828 13.814828 58.548828 13.673828 L 60.128906 12.445312 C 60.564906 12.106312 60.642688 11.479969 60.304688 11.042969 C 60.135688 10.824469 59.894625 10.696062 59.640625 10.664062 z M 32.25 15 C 31.166667 15 30.226892 15.442256 29.626953 16.117188 C 29.027014 16.792119 28.75 17.652778 28.75 18.5 C 28.75 19.347222 29.027014 20.207881 29.626953 20.882812 C 30.226892 21.557744 31.166667 22 32.25 22 C 33.333333 22 34.273108 21.557744 34.873047 20.882812 C 35.472986 20.207881 35.75 19.347222 35.75 18.5 C 35.75 17.652778 35.472986 16.792119 34.873047 16.117188 C 34.273108 15.442256 33.333333 15 32.25 15 z M 32.25 17 C 32.833333 17 33.143559 17.182744 33.376953 17.445312 C 33.610347 17.707881 33.75 18.097222 33.75 18.5 C 33.75 18.902778 33.610347 19.292119 33.376953 19.554688 C 33.143559 19.817256 32.833333 20 32.25 20 C 31.666667 20 31.356441 19.817256 31.123047 19.554688 C 30.889653 19.292119 30.75 18.902778 30.75 18.5 C 30.75 18.097222 30.889653 17.707881 31.123047 17.445312 C 31.356441 17.182744 31.666667 17 32.25 17 z M 22.5 19 C 21.416667 19 20.476892 19.442256 19.876953 20.117188 C 19.277014 20.792119 19 21.652778 19 22.5 C 19 23.347222 19.277014 24.207882 19.876953 24.882812 C 20.476892 25.557744 21.416667 26 22.5 26 C 23.583333 26 24.523108 25.557744 25.123047 24.882812 C 25.722986 24.207881 26 23.347222 26 22.5 C 26 21.652778 25.722986 20.792118 25.123047 20.117188 C 24.523108 19.442256 23.583333 19 22.5 19 z M 41.5 19 C 40.416667 19 39.476892 19.442256 38.876953 20.117188 C 38.277014 20.792119 38 21.652778 38 22.5 C 38 23.347222 38.277014 24.207882 38.876953 24.882812 C 39.476892 25.557744 40.416667 26 41.5 26 C 42.583333 26 43.523108 25.557744 44.123047 24.882812 C 44.722986 24.207881 45 23.347222 45 22.5 C 45 21.652778 44.722986 20.792118 44.123047 20.117188 C 43.523108 19.442256 42.583333 19 41.5 19 z M 22.5 21 C 23.083333 21 23.393559 21.182744 23.626953 21.445312 C 23.860347 21.707881 24 22.097222 24 22.5 C 24 22.902778 23.860347 23.292118 23.626953 23.554688 C 23.393559 23.817256 23.083333 24 22.5 24 C 21.916667 24 21.606441 23.817256 21.373047 23.554688 C 21.139653 23.292119 21 22.902778 21 22.5 C 21 22.097222 21.139653 21.707882 21.373047 21.445312 C 21.606441 21.182744 21.916667 21 22.5 21 z M 41.5 21 C 42.083333 21 42.393559 21.182744 42.626953 21.445312 C 42.860347 21.707881 43 22.097222 43 22.5 C 43 22.902778 42.860347 23.292118 42.626953 23.554688 C 42.393559 23.817256 42.083333 24 41.5 24 C 40.916667 24 40.606441 23.817256 40.373047 23.554688 C 40.139653 23.292119 40 22.902778 40 22.5 C 40 22.097222 40.139653 21.707882 40.373047 21.445312 C 40.606441 21.182744 40.916667 21 41.5 21 z M 6.7988281 25.585938 C 9.2702897 26.663823 11 29.120563 11 32 C 11 34.878724 9.2699636 37.336316 6.7988281 38.414062 C 6.2792581 36.362551 6 34.214241 6 32 C 6 29.785759 6.2792581 27.637449 6.7988281 25.585938 z M 57.314453 26.068359 C 57.758424 27.97399 58 29.958142 58 32 C 58 34.046798 57.756607 36.035464 57.310547 37.945312 C 55.326046 36.711678 54 34.517842 54 32 C 54 29.483725 55.332224 27.301712 57.314453 26.068359 z M 18.5 28.5 C 17.416667 28.5 16.476892 28.942256 15.876953 29.617188 C 15.277014 30.292119 15 31.152778 15 32 C 15 32.847222 15.277014 33.707881 15.876953 34.382812 C 16.476892 35.057744 17.416667 35.5 18.5 35.5 C 19.583333 35.5 20.523108 35.057744 21.123047 34.382812 C 21.722986 33.707881 22 32.847222 22 32 C 22 31.152778 21.722986 30.292118 21.123047 29.617188 C 20.523108 28.942256 19.583333 28.5 18.5 28.5 z M 46.5 29 C 45.416667 29 44.476892 29.442256 43.876953 30.117188 C 43.277014 30.792119 43 31.652778 43 32.5 C 43 33.347222 43.277014 34.207881 43.876953 34.882812 C 44.476892 35.557744 45.416667 36 46.5 36 C 47.583333 36 48.523108 35.557744 49.123047 34.882812 C 49.722986 34.207881 50 33.347222 50 32.5 C 50 31.652778 49.722986 30.792118 49.123047 30.117188 C 48.523108 29.442256 47.583333 29 46.5 29 z M 18.5 30.5 C 19.083333 30.5 19.393559 30.682744 19.626953 30.945312 C 19.860347 31.207881 20 31.597222 20 32 C 20 32.402778 19.860347 32.792119 19.626953 33.054688 C 19.393559 33.317256 19.083333 33.5 18.5 33.5 C 17.916667 33.5 17.606441 33.317256 17.373047 33.054688 C 17.139653 32.792119 17 32.402778 17 32 C 17 31.597222 17.139653 31.207882 17.373047 30.945312 C 17.606441 30.682744 17.916667 30.5 18.5 30.5 z M 46.5 31 C 47.083333 31 47.393559 31.182744 47.626953 31.445312 C 47.860347 31.707881 48 32.097222 48 32.5 C 48 32.902778 47.860347 33.292119 47.626953 33.554688 C 47.393559 33.817256 47.083333 34 46.5 34 C 45.916667 34 45.606441 33.817256 45.373047 33.554688 C 45.139653 33.292119 45 32.902778 45 32.5 C 45 32.097222 45.139653 31.707881 45.373047 31.445312 C 45.606441 31.182744 45.916667 31 46.5 31 z M 22.5 38 C 21.416667 38 20.476892 38.442256 19.876953 39.117188 C 19.277014 39.792119 19 40.652778 19 41.5 C 19 42.347222 19.277014 43.207881 19.876953 43.882812 C 20.476892 44.557744 21.416667 45 22.5 45 C 23.583333 45 24.523108 44.557745 25.123047 43.882812 C 25.722986 43.207881 26 42.347222 26 41.5 C 26 40.652778 25.722986 39.792119 25.123047 39.117188 C 24.523108 38.442256 23.583333 38 22.5 38 z M 41.5 38 C 40.416667 38 39.476892 38.442256 38.876953 39.117188 C 38.277014 39.792119 38 40.652778 38 41.5 C 38 42.347222 38.277014 43.207881 38.876953 43.882812 C 39.476892 44.557744 40.416667 45 41.5 45 C 42.583333 45 43.523108 44.557745 44.123047 43.882812 C 44.722986 43.207881 45 42.347222 45 41.5 C 45 40.652778 44.722986 39.792119 44.123047 39.117188 C 43.523108 38.442256 42.583333 38 41.5 38 z M 22.5 40 C 23.083333 40 23.393559 40.182744 23.626953 40.445312 C 23.860347 40.707881 24 41.097222 24 41.5 C 24 41.902778 23.860347 42.292119 23.626953 42.554688 C 23.393559 42.817256 23.083333 43 22.5 43 C 21.916667 43 21.606441 42.817255 21.373047 42.554688 C 21.139653 42.292119 21 41.902778 21 41.5 C 21 41.097222 21.139653 40.707881 21.373047 40.445312 C 21.606441 40.182744 21.916667 40 22.5 40 z M 41.5 40 C 42.083333 40 42.393559 40.182744 42.626953 40.445312 C 42.860347 40.707881 43 41.097222 43 41.5 C 43 41.902778 42.860347 42.292119 42.626953 42.554688 C 42.393559 42.817256 42.083333 43 41.5 43 C 40.916667 43 40.606441 42.817255 40.373047 42.554688 C 40.139653 42.292119 40 41.902778 40 41.5 C 40 41.097222 40.139653 40.707881 40.373047 40.445312 C 40.606441 40.182744 40.916667 40 41.5 40 z M 32.25 43 C 31.166667 43 30.226892 43.442255 29.626953 44.117188 C 29.027014 44.792119 28.75 45.652778 28.75 46.5 C 28.75 47.347222 29.027014 48.207881 29.626953 48.882812 C 30.226892 49.557744 31.166667 50 32.25 50 C 33.333333 50 34.273108 49.557745 34.873047 48.882812 C 35.472986 48.207881 35.75 47.347222 35.75 46.5 C 35.75 45.652778 35.472986 44.792119 34.873047 44.117188 C 34.273108 43.442256 33.333333 43 32.25 43 z M 12 45 C 15.877484 45 19 48.122516 19 52 C 19 52.806995 18.861 53.576568 18.611328 54.294922 C 14.96176 52.100568 11.897346 49.038329 9.703125 45.388672 C 10.42192 45.138687 11.192742 45 12 45 z M 32.25 45 C 32.833333 45 33.143559 45.182745 33.376953 45.445312 C 33.610347 45.707881 33.75 46.097222 33.75 46.5 C 33.75 46.902778 33.610347 47.292119 33.376953 47.554688 C 33.143559 47.817256 32.833333 48 32.25 48 C 31.666667 48 31.356441 47.817255 31.123047 47.554688 C 30.889653 47.292119 30.75 46.902778 30.75 46.5 C 30.75 46.097222 30.889653 45.707881 31.123047 45.445312 C 31.356441 45.182744 31.666667 45 32.25 45 z M 52 45 C 52.807123 45 53.578031 45.136949 54.296875 45.386719 C 52.102594 49.037013 49.038723 52.100278 45.388672 54.294922 C 45.139252 53.576593 45 52.806483 45 52 C 45 48.122516 48.122516 45 52 45 z M 6.1894531 50.142578 C 5.9354531 50.110703 5.6691719 50.17475 5.4511719 50.34375 L 3.8710938 51.570312 C 3.4350937 51.909313 3.3573125 52.537609 3.6953125 52.974609 C 3.8933125 53.228609 4.1883281 53.361328 4.4863281 53.361328 C 4.7003281 53.361328 4.9166562 53.292391 5.0976562 53.150391 L 6.6777344 51.923828 C 7.1137344 51.584828 7.1934688 50.958484 6.8554688 50.521484 C 6.6864688 50.302984 6.4434531 50.174453 6.1894531 50.142578 z M 9.2578125 53.759766 C 9.0020625 53.759766 8.7462812 53.857234 8.5507812 54.052734 L 7.1367188 55.466797 C 6.7457188 55.857797 6.7457187 56.489859 7.1367188 56.880859 C 7.3317188 57.075859 7.58775 57.173828 7.84375 57.173828 C 8.09975 57.173828 8.3557812 57.075859 8.5507812 56.880859 L 9.9648438 55.466797 C 10.355844 55.075797 10.355844 54.443734 9.9648438 54.052734 C 9.7693438 53.857234 9.5135625 53.759766 9.2578125 53.759766 z M 32 54 C 34.516109 54 36.699881 55.331163 37.933594 57.3125 C 36.027267 57.756816 34.042673 58 32 58 C 29.951878 58 27.96176 57.757168 26.050781 57.310547 C 27.284432 55.324488 29.480237 54 32 54 z M 12.757812 56.958984 C 12.503938 56.990984 12.261297 57.121344 12.091797 57.339844 L 10.865234 58.919922 C 10.527234 59.355922 10.606969 59.983266 11.042969 60.322266 C 11.225969 60.464266 11.440297 60.53125 11.654297 60.53125 C 11.953297 60.53125 12.249313 60.398531 12.445312 60.144531 L 13.671875 58.564453 C 14.009875 58.128453 13.930141 57.501109 13.494141 57.162109 C 13.276141 56.992609 13.011687 56.926984 12.757812 56.958984 z"/></svg>